<svg width="24" height="24" viewBox="0 0 24 24" fill="none" xmlns="http://www.w3.org/2000/svg">
<path d="M4 8.99999C4 8.4477 4.44772 7.99999 5 7.99999H7C7.55229 7.99999 8 8.4477 8 8.99999V19C8 19.5523 7.55229 20 7 20H5C4.44772 20 4 19.5523 4 19V8.99999Z" fill="#CCCCCC"/>
<path d="M10 4.99999C10 4.4477 10.4477 3.99999 11 3.99999H13C13.5523 3.99999 14 4.4477 14 4.99999V19C14 19.5523 13.5523 20 13 20H11C10.4477 20 10 19.5523 10 19V4.99999Z" fill="#CCCCCC"/>
<path d="M16 17C16 16.4477 16.4477 16 17 16H19C19.5523 16 20 16.4477 20 17V19C20 19.5523 19.5523 20 19 20H17C16.4477 20 16 19.5523 16 19V17Z" fill="#CCCCCC"/>
<path d="M16 12C16 10.8954 16.8954 9.99999 18 9.99999C19.1046 9.99999 20 10.8954 20 12C20 13.1046 19.1046 14 18 14C16.8954 14 16 13.1046 16 12Z" fill="#CCCCCC"/>
</svg>
