<svg width="42" height="14" viewBox="0 0 42 14" fill="none" xmlns="http://www.w3.org/2000/svg">
<path d="M15.946 0.241501L10.4475 13.3595H6.86L4.1545 2.88925C3.99 2.24525 3.84825 2.009 3.34775 1.73775C2.53225 1.295 1.18475 0.880251 0 0.621251L0.0805 0.241501H5.8555C6.23288 0.241122 6.59797 0.375664 6.88486 0.620839C7.17176 0.866014 7.36156 1.20567 7.42 1.5785L8.84975 9.17L12.3812 0.241501H15.946ZM30.0037 9.07725C30.0178 5.614 25.2158 5.42325 25.249 3.87625C25.2595 3.4055 25.7075 2.905 26.6875 2.77725C27.836 2.66817 28.9927 2.87133 30.0352 3.36525L30.6303 0.58275C29.6152 0.201154 28.5402 0.00380908 27.4557 0C24.101 0 21.7402 1.785 21.7192 4.33825C21.6982 6.2265 23.4045 7.27825 24.6908 7.90825C26.0138 8.5505 26.4583 8.9635 26.4513 9.5375C26.4425 10.4195 25.3978 10.8062 24.4212 10.822C22.715 10.8482 21.7262 10.3617 20.9353 9.99425L20.321 12.8677C21.1138 13.2317 22.5767 13.5502 24.094 13.5642C27.6587 13.5642 29.9915 11.8037 30.0037 9.07725ZM38.8605 13.3595H42L39.2612 0.241501H36.3633C36.0536 0.238631 35.7502 0.328858 35.4925 0.50048C35.2348 0.672103 35.0345 0.917204 34.9177 1.204L29.827 13.3595H33.39L34.0988 11.3995H38.4528L38.8605 13.3595ZM35.0752 8.7115L36.8602 3.78525L37.8892 8.7115H35.0752ZM20.7952 0.241501L17.99 13.3595H14.595L17.4037 0.241501H20.7952Z" fill="white"/>
</svg>
